<svg width="75" height="18" viewBox="0 0 75 18" fill="none" xmlns="http://www.w3.org/2000/svg">
<path d="M14.3672 3.78516H9.14062V18H5.625V3.78516H0.46875V0.9375H14.3672V3.78516ZM22.6992 11.7539H19.8984V18H16.3828V0.9375H22.7227C24.7383 0.9375 26.293 1.38672 27.3867 2.28516C28.4805 3.18359 29.0273 4.45312 29.0273 6.09375C29.0273 7.25781 28.7734 8.23047 28.2656 9.01172C27.7656 9.78516 27.0039 10.4023 25.9805 10.8633L29.6719 17.8359V18H25.8984L22.6992 11.7539ZM19.8984 8.90625H22.7344C23.6172 8.90625 24.3008 8.68359 24.7852 8.23828C25.2695 7.78516 25.5117 7.16406 25.5117 6.375C25.5117 5.57031 25.2812 4.9375 24.8203 4.47656C24.3672 4.01562 23.668 3.78516 22.7227 3.78516H19.8984V8.90625ZM41.3438 14.4844H35.1797L34.0078 18H30.2695L36.6211 0.9375H39.8789L46.2656 18H42.5273L41.3438 14.4844ZM36.1289 11.6367H40.3945L38.25 5.25L36.1289 11.6367ZM47.8594 18V0.9375H53.1094C54.6094 0.9375 55.9492 1.27734 57.1289 1.95703C58.3164 2.62891 59.2422 3.58984 59.9062 4.83984C60.5703 6.08203 60.9023 7.49609 60.9023 9.08203V9.86719C60.9023 11.4531 60.5742 12.8633 59.918 14.0977C59.2695 15.332 58.3516 16.2891 57.1641 16.9688C55.9766 17.6484 54.6367 17.9922 53.1445 18H47.8594ZM51.375 3.78516V15.1758H53.0742C54.4492 15.1758 55.5 14.7266 56.2266 13.8281C56.9531 12.9297 57.3242 11.6445 57.3398 9.97266V9.07031C57.3398 7.33594 56.9805 6.02344 56.2617 5.13281C55.543 4.23438 54.4922 3.78516 53.1094 3.78516H51.375ZM73.7344 10.6055H66.9844V15.1758H74.9062V18H63.4688V0.9375H74.8828V3.78516H66.9844V7.85156H73.7344V10.6055Z" fill="#050029"/>
</svg>
